<?xml version="1.0" standalone="no"?><!DOCTYPE svg PUBLIC "-//W3C//DTD SVG 1.1//EN" "http://www.w3.org/Graphics/SVG/1.1/DTD/svg11.dtd"><svg xmlns="http://www.w3.org/2000/svg" version="1.1" width="884.834" height="771.145" xmlns:xlink="http://www.w3.org/1999/xlink" xlink="http://www.w3.org/1999/xlink" style="position:relative;overflow:hidden;" viewBox="66.082 55.89 884.834 771.145"><defs><filter id="91ff0d22-f563-4b9d-87e2-dfbc1056820d" x="-0.5" y="-0.5" width="2" height="2"><feFlood flood-color="#000" flood-opacity="0.3" result="flood"/><feComposite in="flood" in2="SourceAlpha" operator="in" result="mask"/><feGaussianBlur in="mask" stdDeviation="2"/><feOffset dx="1.25" dy="1.25" result="oEffect0"/><feMerge><feMergeNode in="oEffect0"/><feMergeNode in="SourceGraphic"/></feMerge></filter></defs><g><g width="151" height="0" transform="scale(1,1) translate(445.611,106.64)"><g fill="#545454" stroke="#545454" stroke-opacity="1" transform="scale(1,1) translate(0,0)"><path fill="none" stroke-width="1" stroke-dasharray="none" d="M0,0 L0,0 M0,0 L0,0 M151,0 L151,0 M0,0 L0,0"/><g><g stroke-dasharray="none"><path d="M0,0L-10,0L-10,-10L0,-10z" stroke-width="0" fill="none"/></g></g></g></g><g width="0" height="193.354" transform="scale(1,1) translate(520.611,144.307)"><g fill="#545454" stroke="#545454" stroke-opacity="1" transform="scale(1,1) translate(0,0)"><path fill="none" stroke-width="1" stroke-dasharray="none" d="M0,75 L0,75 M0,0 L0,65 M0,193.354 L0,193.354 M0,75 L0,75"/><g><g stroke-dasharray="none"><path d="M5,65L0,75L-5,65z" stroke="none" fill-opacity="1"/></g></g></g></g><g width="150" height="75.167" transform="scale(1,1) translate(445.611,69.14)"><g transform="scale(1,1) translate(0,0)" stroke="#B3D7EE" fill="#B3D7EE" fill-opacity="1" stroke-opacity="1" filter="url(#91ff0d22-f563-4b9d-87e2-dfbc1056820d)"><path d="M37,0 L28.675,0.949 L25.303,1.897 L22.769,2.846 L20.678,3.795 L18.875,4.744 L17.281,5.692 L15.85,6.641 L14.549,7.59 L13.358,8.538 L12.26,9.487 L11.244,10.436 L10.301,11.385 L9.422,12.333 L8.602,13.282 L7.836,14.231 L7.119,15.179 L6.449,16.128 L5.822,17.077 L5.236,18.026 L4.688,18.974 L4.177,19.923 L3.7,20.872 L3.257,21.821 L2.846,22.769 L2.466,23.718 L2.116,24.667 L1.795,25.615 L1.502,26.564 L1.237,27.513 L0.999,28.462 L0.787,29.41 L0.601,30.359 L0.44,31.308 L0.305,32.256 L0.195,33.205 L0.11,34.154 L0.049,35.103 L0.012,36.051 L0,37 L0,38.167 L0.012,39.115 L0.049,40.064 L0.11,41.013 L0.195,41.962 L0.305,42.91 L0.44,43.859 L0.601,44.808 L0.787,45.756 L0.999,46.705 L1.237,47.654 L1.502,48.603 L1.795,49.551 L2.116,50.5 L2.466,51.449 L2.846,52.397 L3.257,53.346 L3.7,54.295 L4.177,55.244 L4.688,56.192 L5.236,57.141 L5.822,58.09 L6.449,59.038 L7.119,59.987 L7.836,60.936 L8.602,61.885 L9.422,62.833 L10.301,63.782 L11.244,64.731 L12.26,65.679 L13.358,66.628 L14.549,67.577 L15.85,68.526 L17.281,69.474 L18.875,70.423 L20.678,71.372 L22.769,72.321 L25.303,73.269 L28.675,74.218 L37,75.167 L113,75.167 L121.325,74.218 L124.697,73.269 L127.231,72.321 L129.322,71.372 L131.125,70.423 L132.719,69.474 L134.15,68.526 L135.451,67.577 L136.642,66.628 L137.74,65.679 L138.756,64.731 L139.699,63.782 L140.578,62.833 L141.398,61.885 L142.164,60.936 L142.881,59.987 L143.551,59.038 L144.178,58.09 L144.764,57.141 L145.312,56.192 L145.823,55.244 L146.3,54.295 L146.743,53.346 L147.154,52.397 L147.534,51.449 L147.884,50.5 L148.205,49.551 L148.498,48.603 L148.763,47.654 L149.001,46.705 L149.213,45.756 L149.399,44.808 L149.56,43.859 L149.695,42.91 L149.805,41.962 L149.89,41.013 L149.951,40.064 L149.988,39.115 L150,38.167 L150,37 L149.988,36.051 L149.951,35.103 L149.89,34.154 L149.805,33.205 L149.695,32.256 L149.56,31.308 L149.399,30.359 L149.213,29.41 L149.001,28.462 L148.763,27.513 L148.498,26.564 L148.205,25.615 L147.884,24.667 L147.534,23.718 L147.154,22.769 L146.743,21.821 L146.3,20.872 L145.823,19.923 L145.312,18.974 L144.764,18.026 L144.178,17.077 L143.551,16.128 L142.881,15.179 L142.164,14.231 L141.398,13.282 L140.578,12.333 L139.699,11.385 L138.756,10.436 L137.74,9.487 L136.642,8.538 L135.451,7.59 L134.15,6.641 L132.719,5.692 L131.125,4.744 L129.322,3.795 L127.231,2.846 L124.697,1.897 L121.325,0.949 L113,0 L37,0 z" stroke-width="1" stroke-dasharray="none"/></g><g width="101.358910518" height="48.44375299833332" transform="scale(1,1) translate(24.321,13.361)"><text width="101.358910518" height="31.249998092651367" transform="scale(1,1) translate(0,8.596877452840978)" xml:space="preserve"><tspan xml:space="preserve" text-rendering="optimizeSpeed" font-size="13.88888888888889" font-weight="normal" font-style="normal" text-decoration="none" fill="#333333" opacity="1" x="15.559" text-anchor="start" y="12.5" textLength="66.38275146484375" style="font-family: Arial, Helvetica Neue, Helvetica, sans-serif;">Breed new</tspan><tspan xml:space="preserve" text-rendering="optimizeSpeed" font-size="13.88888888888889" font-weight="normal" font-style="normal" text-decoration="none" fill="#333333" opacity="1" x="18.637" text-anchor="start" y="28.125" textLength="64.0843505859375" style="font-family: Arial, Helvetica Neue, Helvetica, sans-serif;">population</tspan></text></g></g><g width="679.11" height="75" transform="scale(1,1) translate(181.056,336.661)"><g fill="#545454" stroke="#545454" stroke-opacity="1" transform="scale(1,1) translate(0,0)"><path fill="none" stroke-width="1" stroke-dasharray="none" d="M339.555,0 L339.555,0 M339.555,0 L339.555,0 M339.555,0 L339.555,0 M339.555,0 L9.765,72.843 M339.555,0 L669.345,72.843"/><g><g stroke-dasharray="none"><path d="M10.843,77.726L0,75L8.686,67.961z" stroke="none" fill-opacity="1"/></g><g stroke-dasharray="none"><path d="M670.424,67.961L679.11,75L668.267,77.726z" stroke="none" fill-opacity="1"/></g></g></g><g stroke-width="0" stroke-dasharray="none" fill="#FFFFFF" opacity="1" width="73.793" height="17.625" transform="scale(1,1) translate(132.881,28.688)"><rect width="73.793" height="17.625"/></g><g width="71.79314422607422" height="115" transform="scale(1,1) translate(133.881,29.688)"><text width="71.79314422607422" height="15.624999046325684" transform="scale(1,1) translate(0,0)" xml:space="preserve"><tspan xml:space="preserve" text-rendering="optimizeSpeed" font-size="13.88888888888889" font-weight="normal" font-style="normal" text-decoration="none" fill="#333333" opacity="1" x="0" text-anchor="start" y="12.5" textLength="71.79314422607422" style="font-family: Arial, Helvetica Neue, Helvetica, sans-serif;">if fit enough</tspan></text></g><g stroke-width="0" stroke-dasharray="none" fill="#FFFFFF" opacity="1" width="96.954" height="17.625" transform="scale(1,1) translate(460.856,28.688)"><rect width="96.954" height="17.625"/></g><g width="94.95354461669922" height="115" transform="scale(1,1) translate(461.856,29.688)"><text width="94.95354461669922" height="15.624999046325684" transform="scale(1,1) translate(0,0)" xml:space="preserve"><tspan xml:space="preserve" text-rendering="optimizeSpeed" font-size="13.88888888888889" font-weight="normal" font-style="normal" text-decoration="none" fill="#333333" opacity="1" x="0" text-anchor="start" y="12.5" textLength="94.95354461669922" style="font-family: Arial, Helvetica Neue, Helvetica, sans-serif;">if not fit enough</tspan></text></g></g><g width="150" height="117.354" transform="scale(1,1) translate(445.611,219.307)"><g stroke="#B3D7EE" stroke-opacity="1" stroke-width="1" stroke-dasharray="none" width="150" height="117.354" transform="scale(1,1) translate(0,0)" fill="#B3D7EE" fill-opacity="1" filter="url(#91ff0d22-f563-4b9d-87e2-dfbc1056820d)"><rect width="150" height="117.354"/></g><g width="145" height="112.35379364558744" transform="scale(1,1) translate(2.5,2.5)"><text width="145" height="93.7499942779541" transform="scale(1,1) translate(0,9.301899683816671)" xml:space="preserve"><tspan xml:space="preserve" text-rendering="optimizeSpeed" font-size="13.88888888888889" font-weight="normal" font-style="normal" text-decoration="none" fill="#333333" opacity="1" x="12.673" text-anchor="start" y="12.5" textLength="115.79520416259766" style="font-family: Arial, Helvetica Neue, Helvetica, sans-serif;">Sort old population</tspan><tspan xml:space="preserve" text-rendering="optimizeSpeed" font-size="13.88888888888889" font-weight="normal" font-style="normal" text-decoration="none" fill="#333333" opacity="1" x="42.004" text-anchor="start" y="28.125" textLength="57.13488006591797" style="font-family: Arial, Helvetica Neue, Helvetica, sans-serif;">based on</tspan><tspan xml:space="preserve" text-rendering="optimizeSpeed" font-size="13.88888888888889" font-weight="normal" font-style="normal" text-decoration="none" fill="#333333" opacity="1" x="11.531" text-anchor="start" y="43.75" textLength="121.93777465820312" style="font-family: Arial, Helvetica Neue, Helvetica, sans-serif;">fitness-function like:</tspan><tspan xml:space="preserve" text-rendering="optimizeSpeed" font-size="13.88888888888889" font-weight="normal" font-style="normal" text-decoration="none" fill="#333333" opacity="1" x="29.549" text-anchor="start" y="59.375" textLength="85.90231323242188" style="font-family: Arial, Helvetica Neue, Helvetica, sans-serif;">Time survived</tspan><tspan xml:space="preserve" text-rendering="optimizeSpeed" font-size="13.88888888888889" font-weight="normal" font-style="normal" text-decoration="none" fill="#333333" opacity="1" x="66.71" text-anchor="start" y="75" textLength="11.580181121826172" style="font-family: Arial, Helvetica Neue, Helvetica, sans-serif;">or</tspan><tspan xml:space="preserve" text-rendering="optimizeSpeed" font-size="13.88888888888889" font-weight="normal" font-style="normal" text-decoration="none" fill="#333333" opacity="1" x="17.318" text-anchor="start" y="90.625" textLength="110.36447143554688" style="font-family: Arial, Helvetica Neue, Helvetica, sans-serif;">Distance travelled</tspan></text></g></g><g width="313.11" height="0" transform="scale(1,1) translate(282.78,462.523)"><g fill="#545454" stroke="#545454" stroke-opacity="1" transform="scale(1,1) translate(0,0)"><path fill="none" stroke-width="1" stroke-dasharray="none" d="M162.11,0 L162.11,0 M0,0 L152.11,0 M313.11,0 L313.11,0 M162.11,0 L162.11,0"/><g><g stroke-dasharray="none"><path d="M152.11,-5L162.11,0L152.11,5z" stroke="none" fill-opacity="1"/></g></g></g></g><g width="0" height="298.9" transform="scale(1,1) translate(181.056,513.385)"><g fill="#545454" stroke="#545454" stroke-opacity="1" transform="scale(1,1) translate(0,0)"><path fill="none" stroke-width="1" stroke-dasharray="none" d="M0,71.9 L0,71.9 M0,0 L0,61.9 M0,298.9 L0,298.9 M0,71.9 L0,71.9 M0,147.9 L0,212.9"/><g><g stroke-dasharray="none"><path d="M5,61.9L0,71.9L-5,61.9z" stroke="none" fill-opacity="1"/></g><g stroke-dasharray="none"><path d="M5,212.9L0,222.9L-5,212.9z" stroke="none" fill-opacity="1"/></g></g></g></g><g width="203.449" height="101.724" transform="scale(1,1) translate(79.332,411.661)"><g transform="scale(1,1) translate(0,0)" stroke="#B3D7EE" fill="#B3D7EE" fill-opacity="1" stroke-opacity="1" filter="url(#91ff0d22-f563-4b9d-87e2-dfbc1056820d)"><path d="M101.724,0 L203.449,50.862 L101.724,101.724 L0,50.862 L101.724,0 z" stroke-width="1" stroke-dasharray="none"/></g><g width="101.27325178603331" height="44.34765467047691" transform="scale(1,1) translate(51.088,28.688)"><text width="101.27325178603331" height="31.249998092651367" transform="scale(1,1) translate(0,6.548828288912773)" xml:space="preserve"><tspan xml:space="preserve" text-rendering="optimizeSpeed" font-size="13.88888888888889" font-weight="normal" font-style="normal" text-decoration="none" fill="#333333" opacity="1" x="10.496" text-anchor="start" y="12.5" textLength="76.42388916015625" style="font-family: Arial, Helvetica Neue, Helvetica, sans-serif;">Breed upper</tspan><tspan xml:space="preserve" text-rendering="optimizeSpeed" font-size="13.88888888888889" font-weight="normal" font-style="normal" text-decoration="none" fill="#333333" opacity="1" x="0.085" text-anchor="start" y="28.125" textLength="101.10299682617188" style="font-family: Arial, Helvetica Neue, Helvetica, sans-serif;">half of sorted list</tspan></text></g></g><g width="150" height="75" transform="scale(1,1) translate(106.056,585.285)"><g stroke="#B3D7EE" stroke-opacity="1" stroke-width="1" stroke-dasharray="none" width="150" height="75" transform="scale(1,1) translate(0,0)" fill="#B3D7EE" fill-opacity="1" filter="url(#91ff0d22-f563-4b9d-87e2-dfbc1056820d)"><rect width="150" height="75"/></g><g width="145" height="70" transform="scale(1,1) translate(2.5,2.5)"><text width="145" height="31.249998092651367" transform="scale(1,1) translate(0,19.375000953674316)" xml:space="preserve"><tspan xml:space="preserve" text-rendering="optimizeSpeed" font-size="13.88888888888889" font-weight="normal" font-style="normal" text-decoration="none" fill="#333333" opacity="1" x="0" text-anchor="start" y="12.5" textLength="142.78631591796875" style="font-family: Arial, Helvetica Neue, Helvetica, sans-serif;">Destroy all parents and</tspan><tspan xml:space="preserve" text-rendering="optimizeSpeed" font-size="13.88888888888889" font-weight="normal" font-style="normal" text-decoration="none" fill="#333333" opacity="1" x="12.287" text-anchor="start" y="28.125" textLength="120.42594909667969" style="font-family: Arial, Helvetica Neue, Helvetica, sans-serif;">previous population</tspan></text></g></g><g width="229.536" height="84.3" transform="scale(1,1) translate(405.123,500.023)"><g fill="#545454" stroke="#545454" stroke-opacity="1" transform="scale(1,1) translate(0,0)"><path fill="none" stroke-width="1" stroke-dasharray="none" d="M114.768,0 L114.768,0 M114.768,0 L114.768,0 M114.768,0 L114.768,0 M114.768,0 L8.059,78.38 M114.768,0 L221.476,78.38"/><g><g stroke-dasharray="none"><path d="M11.019,82.41L0,84.3L5.1,74.35z" stroke="none" fill-opacity="1"/></g><g stroke-dasharray="none"><path d="M224.436,74.35L229.536,84.3L218.516,82.41z" stroke="none" fill-opacity="1"/></g></g></g><g stroke-width="0" stroke-dasharray="none" fill="#FFFFFF" opacity="1" width="64.26" height="33.25" transform="scale(1,1) translate(25.254,25.525)"><rect width="64.26" height="33.25"/></g><g width="62.26047897338867" height="124.30001860003722" transform="scale(1,1) translate(26.254,26.525)"><text width="62.26047897338867" height="31.249998092651367" transform="scale(1,1) translate(0,0)" xml:space="preserve"><tspan xml:space="preserve" text-rendering="optimizeSpeed" font-size="13.88888888888889" font-weight="normal" font-style="normal" text-decoration="none" fill="#333333" opacity="1" x="18.004" text-anchor="start" y="12.5" textLength="26.25206184387207" style="font-family: Arial, Helvetica Neue, Helvetica, sans-serif;">high</tspan><tspan xml:space="preserve" text-rendering="optimizeSpeed" font-size="13.88888888888889" font-weight="normal" font-style="normal" text-decoration="none" fill="#333333" opacity="1" x="0" text-anchor="start" y="28.125" textLength="62.26047897338867" style="font-family: Arial, Helvetica Neue, Helvetica, sans-serif;">probability</tspan></text></g><g stroke-width="0" stroke-dasharray="none" fill="#FFFFFF" opacity="1" width="64.26" height="33.25" transform="scale(1,1) translate(140.021,25.525)"><rect width="64.26" height="33.25"/></g><g width="62.26047897338867" height="124.30001860003722" transform="scale(1,1) translate(141.021,26.525)"><text width="62.26047897338867" height="31.249998092651367" transform="scale(1,1) translate(0,0)" xml:space="preserve"><tspan xml:space="preserve" text-rendering="optimizeSpeed" font-size="13.88888888888889" font-weight="normal" font-style="normal" text-decoration="none" fill="#333333" opacity="1" x="21.096" text-anchor="start" y="12.5" textLength="20.0687255859375" style="font-family: Arial, Helvetica Neue, Helvetica, sans-serif;">low</tspan><tspan xml:space="preserve" text-rendering="optimizeSpeed" font-size="13.88888888888889" font-weight="normal" font-style="normal" text-decoration="none" fill="#333333" opacity="1" x="0" text-anchor="start" y="28.125" textLength="62.26047897338867" style="font-family: Arial, Helvetica Neue, Helvetica, sans-serif;">probability</tspan></text></g></g><g width="150" height="75" transform="scale(1,1) translate(444.89,425.023)"><g transform="scale(1,1) translate(0,0)" stroke="#D9E3B0" fill="#D9E3B0" fill-opacity="1" stroke-opacity="1" filter="url(#91ff0d22-f563-4b9d-87e2-dfbc1056820d)"><path d="M37,0 L28.675,0.949 L25.303,1.897 L22.769,2.846 L20.678,3.795 L18.875,4.744 L17.281,5.692 L15.85,6.641 L14.549,7.59 L13.358,8.538 L12.26,9.487 L11.244,10.436 L10.301,11.385 L9.422,12.333 L8.602,13.282 L7.836,14.231 L7.119,15.179 L6.449,16.128 L5.822,17.077 L5.236,18.026 L4.688,18.974 L4.177,19.923 L3.7,20.872 L3.257,21.821 L2.846,22.769 L2.466,23.718 L2.116,24.667 L1.795,25.615 L1.502,26.564 L1.237,27.513 L0.999,28.462 L0.787,29.41 L0.601,30.359 L0.44,31.308 L0.305,32.256 L0.195,33.205 L0.11,34.154 L0.049,35.103 L0.012,36.051 L0,37 L0,38 L0.012,38.949 L0.049,39.897 L0.11,40.846 L0.195,41.795 L0.305,42.744 L0.44,43.692 L0.601,44.641 L0.787,45.59 L0.999,46.538 L1.237,47.487 L1.502,48.436 L1.795,49.385 L2.116,50.333 L2.466,51.282 L2.846,52.231 L3.257,53.179 L3.7,54.128 L4.177,55.077 L4.688,56.026 L5.236,56.974 L5.822,57.923 L6.449,58.872 L7.119,59.821 L7.836,60.769 L8.602,61.718 L9.422,62.667 L10.301,63.615 L11.244,64.564 L12.26,65.513 L13.358,66.462 L14.549,67.41 L15.85,68.359 L17.281,69.308 L18.875,70.256 L20.678,71.205 L22.769,72.154 L25.303,73.103 L28.675,74.051 L37,75 L113,75 L121.325,74.051 L124.697,73.103 L127.231,72.154 L129.322,71.205 L131.125,70.256 L132.719,69.308 L134.15,68.359 L135.451,67.41 L136.642,66.462 L137.74,65.513 L138.756,64.564 L139.699,63.615 L140.578,62.667 L141.398,61.718 L142.164,60.769 L142.881,59.821 L143.551,58.872 L144.178,57.923 L144.764,56.974 L145.312,56.026 L145.823,55.077 L146.3,54.128 L146.743,53.179 L147.154,52.231 L147.534,51.282 L147.884,50.333 L148.205,49.385 L148.498,48.436 L148.763,47.487 L149.001,46.538 L149.213,45.59 L149.399,44.641 L149.56,43.692 L149.695,42.744 L149.805,41.795 L149.89,40.846 L149.951,39.897 L149.988,38.949 L150,38 L150,37 L149.988,36.051 L149.951,35.103 L149.89,34.154 L149.805,33.205 L149.695,32.256 L149.56,31.308 L149.399,30.359 L149.213,29.41 L149.001,28.462 L148.763,27.513 L148.498,26.564 L148.205,25.615 L147.884,24.667 L147.534,23.718 L147.154,22.769 L146.743,21.821 L146.3,20.872 L145.823,19.923 L145.312,18.974 L144.764,18.026 L144.178,17.077 L143.551,16.128 L142.881,15.179 L142.164,14.231 L141.398,13.282 L140.578,12.333 L139.699,11.385 L138.756,10.436 L137.74,9.487 L136.642,8.538 L135.451,7.59 L134.15,6.641 L132.719,5.692 L131.125,4.744 L129.322,3.795 L127.231,2.846 L124.697,1.897 L121.325,0.949 L113,0 L37,0 z" stroke-width="1" stroke-dasharray="none"/></g><g width="101.358910518" height="48.325901868" transform="scale(1,1) translate(24.321,13.337)"><text width="101.358910518" height="15.624999046325684" transform="scale(1,1) translate(0,16.35045141083716)" xml:space="preserve"><tspan xml:space="preserve" text-rendering="optimizeSpeed" font-size="13.88888888888889" font-weight="normal" font-style="normal" text-decoration="none" fill="#333333" opacity="1" x="32.153" text-anchor="start" y="12.5" textLength="37.05256652832031" style="font-family: Arial, Helvetica Neue, Helvetica, sans-serif;">Breed</tspan></text></g></g><g width="151.855" height="75.928" transform="scale(1,1) translate(329.195,584.323)"><g stroke="#D9E3B0" stroke-opacity="1" stroke-width="1" stroke-dasharray="none" width="151.855" height="75.928" transform="scale(1,1) translate(0,0)" fill="#D9E3B0" fill-opacity="1" filter="url(#91ff0d22-f563-4b9d-87e2-dfbc1056820d)"><rect width="151.855" height="75.928"/></g><g width="146.85546830296516" height="70.92773415148258" transform="scale(1,1) translate(2.5,2.5)"><text width="146.85546830296516" height="46.87499713897705" transform="scale(1,1) translate(0,12.026368506252766)" xml:space="preserve"><tspan xml:space="preserve" text-rendering="optimizeSpeed" font-size="13.88888888888889" font-weight="normal" font-style="normal" text-decoration="none" fill="#333333" opacity="1" x="10.14" text-anchor="start" y="12.5" textLength="122.71759033203125" style="font-family: Arial, Helvetica Neue, Helvetica, sans-serif;">Create new bot with</tspan><tspan xml:space="preserve" text-rendering="optimizeSpeed" font-size="13.88888888888889" font-weight="normal" font-style="normal" text-decoration="none" fill="#333333" opacity="1" x="20.961" text-anchor="start" y="28.125" textLength="101.075927734375" style="font-family: Arial, Helvetica Neue, Helvetica, sans-serif;">mixed DNA from</tspan><tspan xml:space="preserve" text-rendering="optimizeSpeed" font-size="13.88888888888889" font-weight="normal" font-style="normal" text-decoration="none" fill="#333333" opacity="1" x="50.271" text-anchor="start" y="43.75" textLength="46.313995361328125" style="font-family: Arial, Helvetica Neue, Helvetica, sans-serif;">parents</tspan></text></g></g><g width="150" height="75" transform="scale(1,1) translate(106.056,736.285)"><g stroke="#B3D7EE" stroke-opacity="1" stroke-width="1" stroke-dasharray="none" width="150" height="75" transform="scale(1,1) translate(0,0)" fill="#B3D7EE" fill-opacity="1" filter="url(#91ff0d22-f563-4b9d-87e2-dfbc1056820d)"><rect width="150" height="75"/></g><g width="145" height="70" transform="scale(1,1) translate(2.5,2.5)"><text width="145" height="31.249998092651367" transform="scale(1,1) translate(0,19.375000953674316)" xml:space="preserve"><tspan xml:space="preserve" text-rendering="optimizeSpeed" font-size="13.88888888888889" font-weight="normal" font-style="normal" text-decoration="none" fill="#333333" opacity="1" x="9.202" text-anchor="start" y="12.5" textLength="122.73792266845703" style="font-family: Arial, Helvetica Neue, Helvetica, sans-serif;">Increase generation</tspan><tspan xml:space="preserve" text-rendering="optimizeSpeed" font-size="13.88888888888889" font-weight="normal" font-style="normal" text-decoration="none" fill="#333333" opacity="1" x="55.516" text-anchor="start" y="28.125" textLength="33.967689514160156" style="font-family: Arial, Helvetica Neue, Helvetica, sans-serif;">count</tspan></text></g></g><g width="150" height="75" transform="scale(1,1) translate(785.166,411.661)"><g stroke="#FEBAB2" stroke-opacity="1" stroke-width="1" stroke-dasharray="none" width="150" height="75" transform="scale(1,1) translate(0,0)" fill="#FEBAB2" fill-opacity="1" filter="url(#91ff0d22-f563-4b9d-87e2-dfbc1056820d)"><rect width="150" height="75"/></g><g width="145" height="70" transform="scale(1,1) translate(2.5,2.5)"><text width="145" height="15.624999046325684" transform="scale(1,1) translate(0,27.187500476837158)" xml:space="preserve"><tspan xml:space="preserve" text-rendering="optimizeSpeed" font-size="13.88888888888889" font-weight="normal" font-style="normal" text-decoration="none" fill="#333333" opacity="1" x="42.4" text-anchor="start" y="12.5" textLength="60.199398040771484" style="font-family: Arial, Helvetica Neue, Helvetica, sans-serif;">Extinction</tspan></text></g></g><g width="151.016" height="75.508" transform="scale(1,1) translate(559.15,584.323)"><g stroke="#D9E3B0" stroke-opacity="1" stroke-width="1" stroke-dasharray="none" width="151.016" height="75.508" transform="scale(1,1) translate(0,0)" fill="#D9E3B0" fill-opacity="1" filter="url(#91ff0d22-f563-4b9d-87e2-dfbc1056820d)"><rect width="151.016" height="75.508"/></g><g width="146.01562440395355" height="70.50781220197678" transform="scale(1,1) translate(2.5,2.5)"><text width="146.01562440395355" height="46.87499713897705" transform="scale(1,1) translate(0,11.816407531499863)" xml:space="preserve"><tspan xml:space="preserve" text-rendering="optimizeSpeed" font-size="13.88888888888889" font-weight="normal" font-style="normal" text-decoration="none" fill="#333333" opacity="1" x="9.72" text-anchor="start" y="12.5" textLength="122.71759033203125" style="font-family: Arial, Helvetica Neue, Helvetica, sans-serif;">Create new bot with</tspan><tspan xml:space="preserve" text-rendering="optimizeSpeed" font-size="13.88888888888889" font-weight="normal" font-style="normal" text-decoration="none" fill="#333333" opacity="1" x="32.881" text-anchor="start" y="28.125" textLength="80.2546157836914" style="font-family: Arial, Helvetica Neue, Helvetica, sans-serif;">random DNA</tspan><tspan xml:space="preserve" text-rendering="optimizeSpeed" font-size="13.88888888888889" font-weight="normal" font-style="normal" text-decoration="none" fill="#333333" opacity="1" x="41.756" text-anchor="start" y="43.75" textLength="62.50459289550781" style="font-family: Arial, Helvetica Neue, Helvetica, sans-serif;">(mutation)</tspan></text></g></g></g></svg>